<svg enable-background="new 0 0 312.4 215.2" viewBox="0 0 312.4 215.2" xmlns="http://www.w3.org/2000/svg"><path d="m0 0v184.7h234.8l-16.9 30.5c56.3 0 94.5-38.1 94.5-94.5v-120.7z" fill="#ffcb05"/><g fill="#706f6f"><path d="m142.1 47.8c0 6.3-4.9 11.3-13.2 11.3s-13.2-5.1-13.2-11.3c0-6.3 4.9-11.3 13.2-11.3 8.2 0 13.2 5.1 13.2 11.3zm-13.2-7.3c-5 0-8.6 2.9-8.6 7.4s3.6 7.4 8.6 7.4 8.6-2.9 8.6-7.4-3.6-7.4-8.6-7.4z"/><path d="m190.4 36.9v20.3c0 .9.6 1.6 1.6 1.6h17.8v-4h-15v-5.1h13.4v-4h-13.4v-4.7h14.6v-4h-19"/><path d="m72.9 36.7h-4.5l-11.4 22h4.8l2-4.1h13.7l1.3 2.7c.7 1.3 1.3 1.4 3 1.4h2.5zm-7.2 14.1 4.8-9.6 4.8 9.6z"/><path d="m44 36.9h-4.4v20.3c0 .9.6 1.6 1.6 1.6h13.2l2.1-4h-12.5z"/><path d="m187.6 36.9h-21.1v4.1h8.3v17.8h4.4v-17.8h8.4z"/><path d="m164.4 38.9c-2.4-1.5-6.3-2.4-9.2-2.4-5.6 0-9.9 2.9-9.9 7 0 7.6 15.1 4.8 15.1 9.3 0 1.9-2.8 2.6-5.1 2.6-3 0-6.5-1.1-8.8-2.8l-2.3 3.4c2.7 1.9 7.2 3.1 10.7 3.1 5.5 0 10.1-2.6 10.1-6.8 0-7.8-15-5.3-15-9.6 0-1.8 2.5-2.6 5.2-2.6 2.2 0 5.2.8 7.2 2.2z"/><path d="m97.5 52.2v6.5h-4.4v-21.8c2.3-.1 5.5-.1 8-.1 5.1 0 8.4.7 10.4 2.7 1.2 1.2 1.8 2.7 1.8 4.8 0 6.3-4.9 8-11.9 8-1 0-2.8 0-3.9-.1zm0-4h3.5c2.8 0 5.4-.1 6.8-1.5.6-.6.9-1.4.9-2.4 0-.8-.3-1.6-.7-2-1.4-1.4-3.4-1.5-7-1.5-1 0-2.4 0-3.5 0z"/></g><g fill="#003da5"><path d="m257.4 58.2s1.9.1 3.3-.8c2.2-1.3 5.2-3.8 9.3-9.6l-44.6 11z"/><path d="m234.1 32.1c2.1.8 9.1 3.2 13 5.8.1.1.4.3.4.3l28.9-.5c.1-.1 1.1-1.9 1.7-3.1.7-1.3.7-2.5 0-3.2-.9-.8-2.2-.9-5-.9-2.1 0-35.4 0-38.8 0-.3 0-1.1-.1-1.2.6 0 .2 0 .4.2.6.1.1.6.3.8.4z"/><path d="m292.2 39.3c-.6 0-42.9.7-43.6.7-.4 0-.5.1-.5.5 0 3.1-4.1 6-9.6 8.7-5.8 2.8-13.2 5.5-17 6.9-.9.3-2.5.9-3.1 1.2-.4.2-.7.5-.6.9s.6.6 2 .2c.6-.2 1.4-.3 2.2-.6 7.3-1.9 20.7-5.3 33.7-8.5 13.5-3.4 26.8-6.3 36.5-8 .8-.1 1.4-.6 1.4-1.1.1-.6-.5-.9-1.4-.9z"/></g><g fill="#0066b1"><path d="m50.2 101v44.2h-10.6v-70.5h15.1l9.9 47h.3l9.5-47h14.5v70.5h-10.7v-44.3h-.3l-9.2 44.3h-8l-10.2-44.2z"/><path d="m236.3 145.1h-26.1c-1.1 0-2-.9-2-2v-68.4h10.6v59.9h17.6v10.5z"/><path d="m242.6 143.1v-68.4h30.2v10.7h-19.6v19.2h14.3v10.7h-14.3v19.2h19.6v10.7h-28.2c-1.1-.1-2-1-2-2.1z"/><path d="m169.3 108.5c4.9-3.3 7.6-8.6 7.6-14.5 0-14.5-9.7-19.2-20.4-19.2h-14v68.4c0 1.1.9 2 2 2h16.3c11.3 0 17.4-7.9 17.4-19.7.1-8.1-3.2-14-8.9-17zm-15.3-23.2h4.4c2.1 0 7.2.5 7.2 8.7 0 7.6-4 9.3-7.2 9.3h-4.4zm5 49.2h-5v-21h4.4c3.1 0 8.2.9 8.2 11.1 0 6.8-2.9 9.9-7.6 9.9z"/><path d="m127.8 78c-3.4-3.4-7.4-5-12.1-5s-8.8 1.7-12.1 5c-3.4 3.4-5.1 8.2-5.1 13.6v36.7c0 5.4 1.7 10.2 5.1 13.6s7.4 5 12.1 5 8.8-1.7 12.1-5c3.4-3.4 5.1-8.2 5.1-13.6v-36.7c0-5.5-1.7-10.3-5.1-13.6zm-5.9 50.3c0 2.6-.6 4.6-1.8 5.8s-2.7 1.8-4.4 1.8-3.2-.6-4.4-1.8-1.8-3.2-1.8-5.8v-36.8c0-2.6.6-4.6 1.8-5.8s2.7-1.8 4.4-1.8 3.2.6 4.4 1.8 1.8 3.2 1.8 5.8z"/><path d="m186.9 74.7h10.6v52.7h-10.6z"/><path d="m186.9 134.5h10.6v10.6h-10.6z"/></g></svg>